<?xml version="1.0" encoding="utf-8"?>
<!-- Generator: Adobe Illustrator 27.1.1, SVG Export Plug-In . SVG Version: 6.00 Build 0)  -->
<svg version="1.1" id="Capa_1" xmlns="http://www.w3.org/2000/svg" xmlns:xlink="http://www.w3.org/1999/xlink" x="0px" y="0px"
	 viewBox="0 0 279.6 420" style="enable-background:new 0 0 279.6 420;" xml:space="preserve">
<style type="text/css">
	.st0{fill-rule:evenodd;clip-rule:evenodd;fill:#C69C6D;}
	.st1{fill:#A67C52;}
	.st2{fill-rule:evenodd;clip-rule:evenodd;fill:#A67C52;}
	.st3{fill:#C69C6D;}
</style>
<g>
	<g>
		<path class="st0" d="M58.3,181.4c-17.1,0-25.3,12.7-18.2,28.3l86.8,191c7.1,15.5,18.6,15.5,25.7,0l86.8-191
			c7.1-15.5-1.1-28.3-18.2-28.3H58.3z"/>
		<path class="st1" d="M139.8,420c-4.7,0-13.5-2.1-19.9-16.2L33,212.8c-4.5-9.9-4.3-19.8,0.6-27.4c4.9-7.5,13.8-11.9,24.7-11.9h163
			c10.8,0,19.8,4.3,24.7,11.9c4.9,7.5,5.1,17.5,0.6,27.4l-86.8,191C153.3,417.9,144.5,420,139.8,420z M58.3,189.1
			c-5.5,0-9.7,1.7-11.6,4.7c-2,3.1-1.8,7.5,0.5,12.5l86.8,191c2.4,5.4,4.9,7.1,5.8,7.1s3.3-1.7,5.8-7.1l86.8-191
			c2.3-5,2.5-9.5,0.5-12.5s-6.1-4.7-11.6-4.7H58.3z"/>
	</g>
	<g>
		<circle class="st2" cx="139.8" cy="139.8" r="132"/>
		<path class="st3" d="M139.8,279.6C62.7,279.6,0,216.9,0,139.8S62.7,0,139.8,0c77.1,0,139.8,62.7,139.8,139.8
			S216.9,279.6,139.8,279.6z M139.8,15.5c-68.5,0-124.3,55.7-124.3,124.3S71.3,264,139.8,264c68.5,0,124.3-55.7,124.3-124.3
			S208.3,15.5,139.8,15.5z"/>
	</g>
</g>
<g>
</g>
<g>
</g>
<g>
</g>
<g>
</g>
<g>
</g>
<g>
</g>
<g>
</g>
<g>
</g>
<g>
</g>
<g>
</g>
<g>
</g>
<g>
</g>
<g>
</g>
<g>
</g>
<g>
</g>
</svg>
