<?xml version="1.0" encoding="utf-8"?>
<!-- Generator: Adobe Illustrator 27.1.1, SVG Export Plug-In . SVG Version: 6.00 Build 0)  -->
<svg version="1.1" id="Capa_1" xmlns="http://www.w3.org/2000/svg" xmlns:xlink="http://www.w3.org/1999/xlink" x="0px" y="0px"
	 viewBox="0 0 800 800" style="enable-background:new 0 0 800 800;" xml:space="preserve">
<style type="text/css">
	.st0{fill:#FFFFFF;}
	.st1{fill:#CE2441;}
	.st2{fill:#E6E6E6;}
	.st3{fill:none;stroke:#E6E6E6;stroke-width:3.8095;stroke-linecap:square;stroke-miterlimit:10;}
	.st4{fill:#FFFFFF;stroke:#CCCCCC;stroke-width:0.9524;stroke-miterlimit:10;}
	.st5{clip-path:url(#SVGID_00000112618485695019404800000002602205773459230343_);}
	.st6{fill:#F2F2F2;}
	.st7{clip-path:url(#SVGID_00000059280273675803010190000014304382753419938744_);}
	.st8{clip-path:url(#SVGID_00000151511716767482341120000006573809059457442700_);}
	.st9{clip-path:url(#SVGID_00000085239069899802028460000013266256408718231429_);}
	.st10{clip-path:url(#SVGID_00000128471027220234215210000007930170819386530713_);}
	.st11{clip-path:url(#SVGID_00000134964694683010633810000012145752244608167584_);}
	.st12{opacity:0.6;}
</style>
<g>
	<g>
		<path class="st0" d="M400,800c-54,0-106.4-10.6-155.7-31.4c-47.6-20.1-90.4-49-127.1-85.7c-36.7-36.7-65.6-79.5-85.7-127.1
			C10.6,506.4,0,454,0,400s10.6-106.4,31.4-155.7c20.1-47.6,49-90.4,85.7-127.1c36.7-36.7,79.5-65.6,127.1-85.7
			C293.6,10.6,346,0,400,0s106.4,10.6,155.7,31.4c47.6,20.1,90.4,49,127.1,85.7c36.7,36.7,65.6,79.5,85.7,127.1
			C789.4,293.6,800,346,800,400s-10.6,106.4-31.4,155.7c-20.1,47.6-49,90.4-85.7,127.1c-36.7,36.7-79.5,65.6-127.1,85.7
			C506.4,789.4,454,800,400,800z"/>
	</g>
	<path class="st1" d="M400,19c-105.2,0-200.4,42.6-269.4,111.6c-23.5,23.5-43.9,50-60.6,78.9L400,400V19z"/>
	<path class="st2" d="M729.9,209.5C677.3,118.4,592.8,57.3,498.6,32c-32-8.6-65.2-13-98.6-13v381L729.9,209.5z"/>
	<path class="st1" d="M729.9,590.5c52.6-91.1,63.3-194.9,38.1-289.1c-8.6-32-21.3-63-38-91.9L400,400L729.9,590.5z"/>
	<path class="st2" d="M400,781c105.2,0,200.4-42.6,269.4-111.6c23.5-23.5,43.9-50,60.6-78.9L400,400L400,781z"/>
	<path class="st1" d="M70.1,590.5c52.6,91.1,137.1,152.3,231.3,177.5c32,8.6,65.2,13,98.6,13l0-381L70.1,590.5z"/>
	<path class="st2" d="M70.1,209.5C17.5,300.6,6.8,404.4,32,498.6c8.6,32,21.3,63,38,91.9L400,400L70.1,209.5z"/>
	<line class="st3" x1="400" y1="19" x2="400" y2="781"/>
	<line class="st3" x1="70.1" y1="209.5" x2="729.9" y2="590.5"/>
	<line class="st3" x1="70.1" y1="590.5" x2="729.9" y2="209.5"/>
	<circle class="st4" cx="400" cy="27.1" r="4.8"/>
	<circle class="st4" cx="723" cy="213.5" r="4.8"/>
	<circle class="st4" cx="723" cy="586.5" r="4.8"/>
	<circle class="st4" cx="400" cy="772.9" r="4.8"/>
	<circle class="st4" cx="77" cy="586.5" r="4.8"/>
	<circle class="st4" cx="77" cy="213.5" r="4.8"/>
	<g>
		<defs>
			<path id="SVGID_1_" d="M400,19c-105.2,0-200.4,42.6-269.4,111.6c-23.5,23.5-43.9,50-60.6,78.9L400,400V19z"/>
		</defs>
		<clipPath id="SVGID_00000024687837523448607070000006162116163897313444_">
			<use xlink:href="#SVGID_1_"  style="overflow:visible;"/>
		</clipPath>
		<g style="clip-path:url(#SVGID_00000024687837523448607070000006162116163897313444_);">
			<path class="st6" d="M223,220.4L212.3,232l-36.7-34l-7.2,14.4l-8.7-8.1l12.7-28.8l1-1.1L223,220.4z"/>
			<path class="st6" d="M254.4,160.2c5.4,7.4,7.9,14.3,7.5,20.7c-0.4,6.4-3.6,11.8-9.6,16.3c-6.1,4.4-12.3,5.9-18.5,4.3
				c-6.3-1.6-12.1-6.1-17.4-13.4l-7.3-10c-5.4-7.4-7.9-14.3-7.5-20.7c0.4-6.4,3.6-11.9,9.7-16.3c6.1-4.4,12.2-5.8,18.5-4.2
				c6.3,1.6,12.1,6.1,17.5,13.4L254.4,160.2z M233.2,157.8c-2.9-3.9-5.5-6.5-8-7.7c-2.4-1.2-4.8-1-7,0.7c-2.2,1.6-3.1,3.6-2.8,6.2
				c0.3,2.5,1.8,5.6,4.4,9.4l10.2,14c3,4.1,5.7,6.7,8.1,7.8c2.4,1.1,4.7,0.9,7-0.7c2.2-1.6,3.1-3.7,2.8-6.2
				c-0.3-2.6-1.9-5.9-4.7-9.8L233.2,157.8z"/>
			<path class="st6" d="M303,136.7c3.9,8.3,5,15.5,3.4,21.8c-1.6,6.2-5.8,10.9-12.6,14.1c-6.8,3.2-13.2,3.4-19,0.6
				c-5.9-2.8-10.7-8.3-14.5-16.5l-5.2-11.2c-3.9-8.3-5-15.5-3.4-21.8c1.6-6.2,5.8-10.9,12.6-14.1c6.8-3.2,13.1-3.4,19-0.6
				c5.9,2.8,10.7,8.3,14.6,16.5L303,136.7z M282.8,130.3c-2.1-4.4-4.2-7.4-6.3-9.1c-2.2-1.6-4.5-1.9-7-0.7c-2.4,1.1-3.7,3-3.9,5.5
				c-0.2,2.5,0.7,5.9,2.5,10l7.3,15.7c2.1,4.6,4.3,7.7,6.4,9.2c2.1,1.6,4.5,1.8,7,0.6c2.4-1.1,3.7-3,3.9-5.6
				c0.2-2.6-0.7-6.1-2.8-10.5L282.8,130.3z"/>
			<path class="st6" d="M333.5,131l-4.8,8.7l4.1,17.4l-15.9,3.8l-15.6-65.9l15.9-3.8l6.9,29l3.5-9.7l9.3-24l19.6-4.7l-15.3,34.4
				l31,31.5l-18.8,4.5L333.5,131z"/>
		</g>
	</g>
	<g>
		<defs>
			<path id="SVGID_00000058567338955452794990000017793464238636874890_" d="M729.9,209.5C677.3,118.4,592.8,57.3,498.6,32
				c-32-8.6-65.2-13-98.6-13v381L729.9,209.5z"/>
		</defs>
		<clipPath id="SVGID_00000155131423250200483430000017462536215113014403_">
			<use xlink:href="#SVGID_00000058567338955452794990000017793464238636874890_"  style="overflow:visible;"/>
		</clipPath>
		<g style="clip-path:url(#SVGID_00000155131423250200483430000017462536215113014403_);">
			<path d="M447,124.2l-2.7,14.1l-8.2-1.6l7.8-39.9l15.6,3c3,0.6,5.5,1.6,7.6,3.2c2.1,1.5,3.5,3.4,4.3,5.7c0.8,2.3,1,4.7,0.5,7.2
				c-0.8,3.9-2.7,6.7-5.8,8.5c-3.1,1.7-7,2.1-11.8,1.2L447,124.2z M448.3,117.6l7.3,1.4c2.2,0.4,3.9,0.2,5.3-0.6s2.2-2.2,2.6-4
				c0.4-2,0.1-3.6-0.8-5.1c-0.9-1.4-2.4-2.4-4.4-2.8l-7.5-1.5L448.3,117.6z"/>
			<path d="M478.7,146.6l-8-2.4l11.4-39l8,2.4L478.7,146.6z"/>
			<path d="M513.8,140.6l-15-5.8l-3.9,10.1l17.6,6.8L510,158l-25.4-9.9l14.7-37.9l25.3,9.8l-2.5,6.3l-17.5-6.8l-3.5,9l15,5.8
				L513.8,140.6z"/>
			<path d="M532.5,153l-5.9-3.1l-7,13.1l-7.4-3.9l19.1-35.8l13.3,7.1c4.2,2.3,7,4.9,8.3,8.1c1.3,3.1,1,6.4-0.8,9.8
				c-1.3,2.4-2.9,4.2-4.9,5.3c-1.9,1.1-4.2,1.5-6.9,1.3l-0.1,18.8l-0.2,0.3l-7.9-4.2L532.5,153z M529.8,143.9l6,3.2
				c1.9,1,3.5,1.3,5.1,0.9c1.5-0.4,2.7-1.4,3.6-3.1c0.9-1.7,1.1-3.3,0.7-4.8c-0.4-1.5-1.7-2.8-3.6-3.8l-5.9-3.2L529.8,143.9z"/>
			<path d="M542,175.3l23.6-33.1l10.2,7.3c2.9,2.1,5,4.6,6.4,7.5c1.4,2.9,1.8,6.1,1.4,9.4c-0.4,3.3-1.7,6.5-3.9,9.6l-1.1,1.5
				c-2.2,3.1-4.8,5.4-7.7,6.9c-3,1.5-6.1,2.1-9.3,1.8c-3.2-0.3-6.3-1.5-9.2-3.6L542,175.3z M568.5,152.6l-15.7,22.1l3.3,2.3
				c2.7,1.9,5.3,2.5,8,1.7c2.7-0.7,5.1-2.7,7.5-5.9l1.2-1.7c2.4-3.4,3.5-6.4,3.4-9.1c-0.2-2.7-1.6-5-4.3-7L568.5,152.6z"/>
			<path d="M599.9,199.3l-11.9-10.9l-7.3,8l13.9,12.7l-4.5,5L570,195.8l27.4-30l20,18.4l-4.6,5L599,176.5l-6.5,7.1l11.9,10.9
				L599.9,199.3z"/>
			<path d="M613.6,225c1.2-1,1.8-2.2,1.7-3.6c-0.1-1.4-0.7-3.5-1.9-6.3c-1.2-2.8-2-5.2-2.4-7c-1.1-5.1-0.1-9.1,3.1-11.8
				c1.7-1.4,3.5-2.2,5.7-2.4c2.1-0.2,4.3,0.3,6.5,1.4c2.2,1.1,4.3,2.8,6.2,5c1.9,2.2,3.2,4.5,3.9,6.9c0.7,2.4,0.7,4.7,0.1,6.9
				c-0.6,2.2-1.9,4.1-3.7,5.7l-5.5-6.3c1.4-1.2,2.1-2.6,2.1-4.2c0-1.6-0.7-3.1-2-4.8c-1.3-1.6-2.7-2.5-4.1-2.8
				c-1.4-0.3-2.6,0-3.7,0.9c-1,0.9-1.4,2.1-1.2,3.7c0.2,1.6,0.8,3.6,1.9,6.1c2,4.5,2.9,8.3,2.8,11.4c-0.2,3-1.5,5.6-3.9,7.6
				c-2.7,2.3-5.6,3.1-8.9,2.4c-3.3-0.7-6.3-2.8-9.3-6.2c-2-2.4-3.5-4.9-4.3-7.6c-0.8-2.7-0.9-5.2-0.3-7.5c0.6-2.3,1.9-4.3,3.9-6
				l5.5,6.4c-3.4,2.9-3.3,6.4,0.1,10.5c1.3,1.5,2.6,2.4,4,2.7C611.3,226.3,612.5,226,613.6,225z"/>
		</g>
	</g>
	<g>
		<defs>
			<path id="SVGID_00000124847700570488142160000002597993173719905950_" d="M729.9,590.5c52.6-91.1,63.3-194.9,38.1-289.1
				c-8.6-32-21.3-63-38-91.9L400,400L729.9,590.5z"/>
		</defs>
		<clipPath id="SVGID_00000152232438496181901390000014456797130396392852_">
			<use xlink:href="#SVGID_00000124847700570488142160000002597993173719905950_"  style="overflow:visible;"/>
		</clipPath>
		<g style="clip-path:url(#SVGID_00000152232438496181901390000014456797130396392852_);">
			<path class="st6" d="M674.5,320.5l34.8-2.9l8,38.8l-11.9,2.5l-5.4-26.3l-13.5,1.2c0.9,1,1.7,2.3,2.6,4c0.9,1.7,1.5,3.4,1.8,5.1
				c1.4,6.6,0.5,12.1-2.7,16.4c-3.2,4.3-8.3,7.2-15.3,8.7c-4.3,0.9-8.3,0.7-12.1-0.5c-3.8-1.2-7-3.3-9.6-6.4
				c-2.6-3-4.3-6.9-5.3-11.6c-0.9-4.2-0.8-8.2,0.2-12.2c1-4,2.7-7.3,5.3-10c2.6-2.7,5.7-4.4,9.5-5.1l3.2,15.4
				c-2.4,0.7-4.2,1.8-5.3,3.5c-1.1,1.7-1.5,3.7-1,6c1.1,5.2,5.4,7,13.1,5.4c7.1-1.5,9.9-5.3,8.6-11.7c-0.7-3.6-2.4-6-5.1-7.3
				L674.5,320.5z"/>
			<path class="st6" d="M679.8,420.8c-9.1,0.1-16.2-1.9-21.2-5.9c-5-4.1-7.5-9.8-7.6-17.3c-0.1-7.5,2.4-13.4,7.3-17.6
				c4.9-4.2,12-6.3,21-6.4l12.4-0.1c9.1-0.1,16.2,1.9,21.2,5.9c5,4.1,7.5,9.8,7.6,17.3s-2.4,13.3-7.3,17.5c-4.9,4.2-12,6.3-21.1,6.4
				L679.8,420.8z M694,405c4.9-0.1,8.5-0.7,10.9-2c2.4-1.3,3.6-3.3,3.5-6.1c0-2.7-1.2-4.6-3.4-5.8c-2.2-1.2-5.6-1.8-10.2-1.9
				l-17.3,0.2c-5.1,0.1-8.7,0.7-11.1,2c-2.3,1.3-3.5,3.3-3.4,6.1c0,2.7,1.2,4.6,3.5,5.9c2.3,1.2,5.9,1.9,10.7,1.8L694,405z"/>
			<path class="st6" d="M672.4,450.9l-5.9-8l-17.5-3.4l3.1-16l66.4,13l-3.1,16l-29.3-5.7l7.4,7.2l18.1,18.4l-3.9,19.8l-25-28.2
				l-41.5,15.2l3.7-19L672.4,450.9z"/>
		</g>
	</g>
	<g>
		<defs>
			<path id="SVGID_00000116913754194678728960000002883062526229621134_" d="M400,781c105.2,0,200.4-42.6,269.4-111.6
				c23.5-23.5,43.9-50,60.6-78.9L400,400L400,781z"/>
		</defs>
		<clipPath id="SVGID_00000165233461481553815840000000682976714843105421_">
			<use xlink:href="#SVGID_00000116913754194678728960000002883062526229621134_"  style="overflow:visible;"/>
		</clipPath>
		<g style="clip-path:url(#SVGID_00000165233461481553815840000000682976714843105421_);">
			<path d="M585.2,643.1c-2.6-3-4.3-6.2-5.2-9.4c-0.9-3.2-0.9-6.3,0.1-9.2c0.9-3,2.7-5.5,5.3-7.8c2.6-2.2,5.4-3.5,8.4-4
				c3.1-0.5,6.1-0.1,9.2,1.3c3.1,1.3,5.9,3.5,8.4,6.4l1.3,1.5c2.6,3,4.3,6.2,5.2,9.4c0.9,3.2,0.9,6.3-0.1,9.3
				c-0.9,2.9-2.7,5.5-5.3,7.7c-2.6,2.2-5.4,3.5-8.4,4c-3.1,0.5-6.1,0-9.2-1.3c-3.1-1.4-5.9-3.6-8.5-6.6L585.2,643.1z M592.9,639
				c2.8,3.2,5.5,5.2,8.1,5.9c2.6,0.7,5,0.1,7.1-1.7c2.1-1.8,3.1-4.1,2.8-6.7c-0.3-2.7-1.8-5.6-4.5-8.8l-1.3-1.5
				c-2.7-3.2-5.4-5.1-8-5.8c-2.6-0.7-5.1-0.2-7.2,1.7c-2.1,1.8-3.1,4.1-2.8,6.7c0.3,2.7,1.8,5.6,4.5,8.8L592.9,639z"/>
			<path d="M563.8,674.9l10.3-6.9l-18.8-28.1l7-4.7l18.8,28.1l10.2-6.8l3.8,5.6l-27.5,18.4L563.8,674.9z"/>
			<path d="M535.1,668.6l6-3l-6.7-13.3l7.5-3.8l18.3,36.3l-13.5,6.8c-4.3,2.2-8.1,2.9-11.4,2.1c-3.3-0.7-5.8-2.8-7.6-6.3
				c-1.3-2.5-1.8-4.8-1.5-7c0.2-2.2,1.2-4.3,2.9-6.4l-15.3-10.8l-0.2-0.3l8-4.1L535.1,668.6z M544.1,671.6l-6,3
				c-1.9,0.9-3.1,2.2-3.6,3.6c-0.5,1.5-0.4,3.1,0.5,4.7c0.9,1.7,2,2.8,3.5,3.3c1.5,0.5,3.2,0.2,5.2-0.8l6-3L544.1,671.6z"/>
			<path d="M485.2,693.6c-1.3-3.8-1.8-7.3-1.5-10.6c0.3-3.3,1.5-6.2,3.4-8.6c1.9-2.4,4.5-4.2,7.7-5.3c3.2-1.1,6.3-1.4,9.3-0.7
				c3,0.6,5.7,2.1,8.1,4.5c2.4,2.4,4.2,5.4,5.5,9l0.7,1.9c1.3,3.8,1.8,7.3,1.5,10.7c-0.3,3.3-1.5,6.2-3.4,8.6s-4.5,4.2-7.7,5.3
				c-3.2,1.1-6.3,1.4-9.3,0.7c-3-0.7-5.7-2.2-8.1-4.6c-2.4-2.4-4.2-5.5-5.5-9.2L485.2,693.6z M493.8,692.5c1.4,4,3.2,6.8,5.4,8.4
				c2.2,1.6,4.6,1.9,7.3,1c2.6-0.9,4.3-2.7,5-5.3c0.7-2.6,0.4-5.8-1-9.8l-0.7-1.9c-1.4-3.9-3.2-6.7-5.4-8.3c-2.2-1.6-4.6-2-7.4-1
				c-2.6,0.9-4.3,2.7-5,5.3c-0.7,2.6-0.3,5.9,1,9.9L493.8,692.5z"/>
		</g>
		<g style="clip-path:url(#SVGID_00000165233461481553815840000000682976714843105421_);">
			<path d="M584.2,546.6l4.6-5.9l28.9,22.4l-4.6,5.9L584.2,546.6z"/>
			<path d="M560.6,572.8l5.2-5.5l27.5,5.9l-17.4-16.6l5.2-5.5l26.5,25.2l-5.2,5.5l-27.6-6l17.5,16.6l-5.2,5.4L560.6,572.8z"/>
			<path d="M555.3,616.4l8.7-7.1l-19.2-23.7l5.9-4.7l19.2,23.7l8.6-7l3.8,4.7l-23.1,18.8L555.3,616.4z"/>
			<path d="M523.8,619.2l12.2-7.7l-5.2-8.3l-14.4,9.1l-3.2-5.1l20.7-13.1l19.5,30.9l-20.7,13.1l-3.3-5.2l14.3-9l-4.7-7.4l-12.2,7.7
				L523.8,619.2z"/>
			<path d="M483.9,621.1l6.8-3.2l23.4,15.6l-10.2-21.8l6.8-3.2l15.4,33.1l-6.8,3.2L496,629.2l10.2,21.9l-6.8,3.2L483.9,621.1z"/>
			<path d="M463.1,659.7l10.7-3.4l-9.1-29.1l7.2-2.3l9.1,29.1l10.5-3.3l1.8,5.8l-28.4,8.9L463.1,659.7z"/>
			<path d="M425.7,653.4c-0.6-3.5-0.5-6.8,0.2-9.7c0.8-2.9,2.2-5.3,4.3-7.1c2.1-1.9,4.6-3.1,7.6-3.6c3-0.5,5.8-0.3,8.4,0.7
				c2.6,1,4.8,2.7,6.5,5.2c1.8,2.4,3,5.4,3.6,8.8l0.3,1.8c0.6,3.5,0.5,6.8-0.3,9.7c-0.8,2.9-2.2,5.3-4.3,7.2c-2.1,1.9-4.6,3-7.6,3.6
				c-3,0.5-5.8,0.3-8.4-0.7c-2.6-1-4.8-2.8-6.5-5.2c-1.8-2.5-2.9-5.5-3.6-9L425.7,653.4z M433.5,653.7c0.7,3.8,1.9,6.5,3.5,8.2
				c1.7,1.7,3.8,2.4,6.3,1.9c2.5-0.4,4.2-1.7,5.2-3.9s1.2-5.1,0.5-8.9l-0.3-1.8c-0.7-3.7-1.8-6.4-3.5-8.2c-1.7-1.8-3.8-2.5-6.4-2
				c-2.5,0.4-4.2,1.8-5.2,3.9c-1,2.2-1.2,5.2-0.5,8.9L433.5,653.7z"/>
		</g>
	</g>
	<g>
		<defs>
			<path id="SVGID_00000070820730485412792300000016823264687322757521_" d="M70.1,590.5c52.6,91.1,137.1,152.3,231.3,177.5
				c32,8.6,65.2,13,98.6,13l0-381L70.1,590.5z"/>
		</defs>
		<clipPath id="SVGID_00000136377320635960592080000011619080706278606755_">
			<use xlink:href="#SVGID_00000070820730485412792300000016823264687322757521_"  style="overflow:visible;"/>
		</clipPath>
		<g style="clip-path:url(#SVGID_00000136377320635960592080000011619080706278606755_);">
			<path class="st6" d="M318.1,680.8l-7.2-2.3c-5.7-1.9-9.5,0-11.3,5.6c-0.7,2.2-0.6,4.2,0.3,6c0.9,1.8,2.6,3.1,5.1,3.9
				c2,0.7,4,0.6,5.9,0c1.9-0.7,3.1-1.9,3.7-3.7l15.3,5c-1.1,3.5-3.1,6.3-5.9,8.3c-2.8,2.1-6.2,3.3-10.1,3.7c-3.9,0.4-7.9-0.1-12-1.4
				c-7.3-2.4-12.6-6-15.7-10.7c-3.1-4.7-3.7-10-1.8-15.9c0.9-2.8,2.7-5.2,5.2-7.2c2.6-2,5.8-3.2,9.6-3.7c-3.1-2.4-5.2-5.2-6.4-8.5
				c-1.2-3.2-1.1-6.8,0.1-10.6c1.9-5.9,5.7-9.9,11.4-11.9c5.7-2.1,12.2-1.9,19.6,0.5c4.3,1.4,8.1,3.5,11.2,6.4
				c3.2,2.9,5.2,6,6.2,9.6c1,3.5,0.8,7.2-0.4,10.9l-15.4-5c0.7-2,0.4-4-0.7-6.1c-1.1-2-2.9-3.4-5.3-4.2c-2.7-0.9-5.1-0.8-7.2,0.1
				c-2.1,1-3.5,2.6-4.3,4.9c-1.1,3.3-1,5.9,0.2,7.9c1.2,1.9,3.3,3.4,6.2,4.3l7.4,2.4L318.1,680.8z"/>
			<path class="st6" d="M241.7,631.5c4.6-8.2,10-13.4,16.1-15.8c6.2-2.4,12.6-1.7,19.3,2.1c6.7,3.8,10.7,8.9,11.9,15.5
				c1.2,6.5-0.5,13.8-5.1,22l-6.2,11c-4.6,8.2-10,13.4-16.1,15.8c-6.2,2.4-12.6,1.7-19.3-2.1c-6.7-3.8-10.6-8.9-11.8-15.4
				c-1.2-6.5,0.5-13.9,5.1-22L241.7,631.5z M248.5,652.2c-2.4,4.3-3.7,7.9-3.8,10.7c-0.1,2.8,1.1,4.9,3.6,6.3c2.4,1.4,4.7,1.3,6.9,0
				c2.2-1.4,4.5-4.1,6.9-8.1l8.7-15.4c2.5-4.5,3.8-8.1,3.9-10.9c0-2.7-1.2-4.8-3.6-6.2c-2.4-1.3-4.7-1.3-7,0.1
				c-2.3,1.4-4.7,4.3-7.1,8.6L248.5,652.2z"/>
			<path class="st6" d="M218.9,609.5l10.1-1.1l12.1-13.7l12.6,11l-45.8,52.1l-12.6-11.1l20.2-23l-10.2,2.8l-25.6,6.5l-15.5-13.7
				l37.9-7.6l8-44.5l14.9,13.1L218.9,609.5z"/>
		</g>
	</g>
	<g>
		<defs>
			<path id="SVGID_00000031918727683402660860000014783506713596709537_" d="M70.1,209.5C17.5,300.6,6.8,404.4,32,498.6
				c8.6,32,21.3,63,38,91.9L400,400L70.1,209.5z"/>
		</defs>
		<clipPath id="SVGID_00000117648227551286988710000008735668510395832751_">
			<use xlink:href="#SVGID_00000031918727683402660860000014783506713596709537_"  style="overflow:visible;"/>
		</clipPath>
		<g style="clip-path:url(#SVGID_00000117648227551286988710000008735668510395832751_);">
			<path d="M137.7,497.2l13.5-4.7l2.7,7.9l-38.4,13.2l-5.2-15c-1-2.9-1.3-5.6-1-8.2c0.3-2.6,1.2-4.8,2.8-6.6c1.5-1.8,3.5-3.2,6-4.1
				c3.8-1.3,7.2-1,10.2,0.8c3.1,1.8,5.4,5,6.9,9.6L137.7,497.2z M131.3,499.4l-2.4-7.1c-0.7-2.1-1.8-3.5-3.1-4.3
				c-1.4-0.8-3-0.8-4.8-0.2c-1.9,0.6-3.2,1.7-4,3.2c-0.8,1.5-0.9,3.2-0.2,5.2l2.5,7.3L131.3,499.4z"/>
			<path d="M141.1,458.5l2,8.1l-39.5,9.6l-2-8.1L141.1,458.5z"/>
			<path d="M118.5,431.2l2.5,15.9l10.8-1.7l-2.9-18.6l6.6-1l4.2,26.9l-40.1,6.2L95.3,432l6.7-1l2.9,18.6l9.6-1.5l-2.5-15.9
				L118.5,431.2z"/>
			<path d="M119.9,408.7l0.2,6.7l14.9-0.5l0.3,8.4l-40.6,1.4l-0.5-15.1c-0.2-4.8,0.8-8.5,2.8-11.2c2.1-2.7,5-4.1,8.9-4.2
				c2.8-0.1,5.1,0.4,7,1.6c1.9,1.1,3.4,2.9,4.6,5.3l16.3-9.3l0.4,0l0.3,9L119.9,408.7z M113.3,415.6l-0.2-6.7
				c-0.1-2.1-0.7-3.7-1.8-4.8c-1.1-1.1-2.6-1.6-4.5-1.6c-1.9,0.1-3.4,0.7-4.5,1.8c-1.1,1.1-1.6,2.8-1.5,5.1l0.2,6.7L113.3,415.6z"/>
			<path d="M134.4,389.4l-40.4-3.9l1.2-12.4c0.3-3.6,1.4-6.7,3.3-9.3c1.9-2.7,4.4-4.6,7.5-5.9c3.1-1.3,6.5-1.8,10.3-1.4l1.9,0.2
				c3.8,0.4,7,1.5,9.8,3.3s4.8,4.2,6.2,7.2c1.3,3,1.9,6.2,1.5,9.8L134.4,389.4z M101.5,377.8l27,2.6l0.4-4c0.3-3.3-0.5-5.9-2.5-7.8
				c-2-1.9-4.9-3.1-8.9-3.5l-2.1-0.2c-4.1-0.4-7.3,0.2-9.6,1.7s-3.6,3.9-3.9,7.2L101.5,377.8z"/>
			<path d="M126.2,327.2l-3.5,15.7l10.6,2.4l4.1-18.4l6.6,1.5l-5.9,26.6l-39.7-8.8l5.9-26.5l6.6,1.5l-4.1,18.4l9.5,2.1l3.5-15.7
				L126.2,327.2z"/>
			<path d="M141.7,302.5c-1.5-0.5-2.8-0.4-4,0.4c-1.2,0.8-2.7,2.4-4.5,4.8c-1.8,2.4-3.5,4.3-4.9,5.6c-3.9,3.5-7.8,4.6-11.8,3.2
				c-2.1-0.7-3.7-2-4.9-3.7c-1.2-1.7-1.9-3.9-2-6.4c-0.1-2.5,0.3-5.1,1.2-7.8c1-2.7,2.3-5,4-6.8c1.7-1.8,3.7-3,5.9-3.5
				c2.2-0.6,4.5-0.4,6.8,0.4l-2.8,7.9c-1.8-0.6-3.3-0.5-4.7,0.2c-1.4,0.8-2.4,2.1-3.1,4.2c-0.7,1.9-0.8,3.6-0.3,4.9
				c0.4,1.4,1.3,2.3,2.7,2.7c1.2,0.4,2.5,0.2,3.8-0.8c1.3-1,2.7-2.5,4.3-4.7c2.9-4,5.7-6.7,8.5-8.1c2.7-1.4,5.6-1.5,8.6-0.5
				c3.3,1.2,5.5,3.3,6.5,6.5c1,3.2,0.8,6.9-0.7,11.1c-1,2.9-2.5,5.4-4.4,7.5c-1.9,2-4.1,3.4-6.4,4c-2.3,0.6-4.7,0.5-7.2-0.4l2.8-7.9
				c4.2,1.5,7.2-0.3,9-5.4c0.7-1.9,0.8-3.5,0.4-4.8C143.9,303.8,143,302.9,141.7,302.5z"/>
		</g>
	</g>
	<g>
		<g class="st12">
			<path class="st2" d="M400,469.6c-18.6,0-36.1-7.2-49.2-20.4c-13.2-13.2-20.4-30.6-20.4-49.2c0-18.6,7.2-36.1,20.4-49.2
				c13.2-13.2,30.6-20.4,49.2-20.4s36.1,7.2,49.2,20.4c13.2,13.2,20.4,30.6,20.4,49.2c0,18.6-7.2,36.1-20.4,49.2
				C436.1,462.4,418.6,469.6,400,469.6z"/>
		</g>
		<path class="st0" d="M462,400c0,17.1-6.9,32.6-18.2,43.9S417.1,462,400,462s-32.6-6.9-43.9-18.2S338,417.1,338,400
			s6.9-32.6,18.2-43.9S382.9,338,400,338s32.6,6.9,43.9,18.2S462,382.9,462,400z"/>
	</g>
</g>
<g>
</g>
<g>
</g>
<g>
</g>
<g>
</g>
<g>
</g>
<g>
</g>
<g>
</g>
<g>
</g>
<g>
</g>
<g>
</g>
<g>
</g>
<g>
</g>
<g>
</g>
<g>
</g>
<g>
</g>
</svg>
